<?xml version="1.0" encoding="UTF-8" standalone="no"?><!DOCTYPE svg PUBLIC "-//W3C//DTD SVG 1.1//EN" "http://www.w3.org/Graphics/SVG/1.1/DTD/svg11.dtd"><svg width="100%" height="100%" viewBox="0 0 230 230" version="1.1" xmlns="http://www.w3.org/2000/svg" xmlns:xlink="http://www.w3.org/1999/xlink" xml:space="preserve" xmlns:serif="http://www.serif.com/" style="fill-rule:evenodd;clip-rule:evenodd;stroke-linejoin:round;stroke-miterlimit:2;"><path d="M229.167,114.662c0,63.329 -51.301,114.505 -114.581,114.505c-63.283,0 -114.586,-51.176 -114.586,-114.505c0,-63.325 51.303,-114.662 114.586,-114.662c63.28,0 114.581,51.337 114.581,114.662Z" style="fill:#3aaf4a;fill-rule:nonzero;"/><path d="M142.024,93.356l-18.897,0l0,-18.897l-15.849,0l0,18.897l-18.897,0l0,15.849l18.897,0l0,18.897l15.849,0l0,-18.897l18.897,0l0,-15.849Z" style="fill:#fffffe;fill-rule:nonzero;"/><path d="M56.569,74.459l15.051,31.174c0,0 -8.601,8.6 -7.525,14.512c1.074,5.912 16.125,24.547 33.863,34.579c0,0 5.194,3.404 10.748,-8.24l33.324,15.586c0,0 -14.973,54.575 -75.246,-7.346c-65.575,-67.365 -10.215,-80.265 -10.215,-80.265Z" style="fill:#fffffe;fill-rule:nonzero;"/><path d="M56.096,72.43c0.949,-0.221 1.925,0.245 2.349,1.123l15.05,31.174c0.385,0.798 0.224,1.753 -0.402,2.379l-0.001,0l0,0.001l-0.001,0.001l-0.014,0.014l-0.062,0.063c-0.055,0.057 -0.14,0.145 -0.249,0.26c-0.218,0.231 -0.533,0.571 -0.909,1c-0.755,0.859 -1.744,2.057 -2.695,3.42c-0.957,1.371 -1.837,2.856 -2.411,4.292c-0.585,1.463 -0.776,2.683 -0.606,3.615l0,0.001c0.185,1.017 1.101,2.979 2.928,5.696c1.77,2.632 4.237,5.747 7.238,9.011c6.009,6.537 14.04,13.549 22.672,18.43c0.02,0.012 0.04,0.023 0.059,0.035c0.005,0.002 0.012,0.006 0.02,0.01c0.046,0.021 0.142,0.06 0.278,0.093c0.263,0.063 0.707,0.11 1.304,-0.071c1.187,-0.36 3.519,-1.809 6.181,-7.389c0.493,-1.033 1.726,-1.475 2.763,-0.991l33.324,15.586c0.92,0.43 1.395,1.46 1.127,2.438l-2.009,-0.551c2.009,0.551 2.008,0.553 2.008,0.555l-0.001,0.004l-0.004,0.013l-0.011,0.04l-0.04,0.137c-0.035,0.116 -0.085,0.281 -0.153,0.49c-0.135,0.417 -0.337,1.009 -0.616,1.733c-0.556,1.446 -1.418,3.432 -2.651,5.613c-2.451,4.336 -6.457,9.6 -12.587,12.808c-6.213,3.253 -14.35,4.259 -24.718,0.49c-10.292,-3.741 -22.786,-12.18 -37.967,-27.776c-32.86,-33.757 -36.358,-54.8 -30.08,-67.756c3.082,-6.358 8.361,-10.347 12.739,-12.724c2.201,-1.196 4.214,-2.006 5.681,-2.519c0.736,-0.257 1.337,-0.44 1.762,-0.561c0.213,-0.061 0.381,-0.106 0.5,-0.137l0.141,-0.035l0.042,-0.01l0.012,-0.003l0.005,-0.001c0.002,-0.001 0.004,-0.001 0.477,2.028l-0.473,-2.029Zm-0.635,4.526c-0.144,0.048 -0.296,0.1 -0.456,0.156c-1.303,0.455 -3.103,1.179 -5.068,2.246c-3.952,2.147 -8.415,5.593 -10.977,10.88c-5.008,10.336 -3.399,29.425 29.316,63.033l-1.493,1.453l1.493,-1.453c14.956,15.365 26.936,23.324 36.404,26.766c9.392,3.414 16.299,2.386 21.363,-0.265c5.147,-2.695 8.652,-7.205 10.892,-11.167c1.112,-1.967 1.891,-3.761 2.389,-5.058c0.05,-0.131 0.098,-0.256 0.142,-0.376l-29.819,-13.946c-2.606,4.774 -5.297,6.982 -7.794,7.739c-1.395,0.424 -2.597,0.348 -3.482,0.136c-0.436,-0.104 -0.79,-0.24 -1.05,-0.36c-0.131,-0.06 -0.238,-0.116 -0.323,-0.163c-0.038,-0.022 -0.072,-0.042 -0.101,-0.059c-9.092,-5.149 -17.442,-12.461 -23.654,-19.218c-3.113,-3.388 -5.718,-6.667 -7.627,-9.506c-1.851,-2.752 -3.218,-5.336 -3.571,-7.275m37.051,32.461l0,-0.001l-0.001,-0.001c0,0.001 0.001,0.001 0.001,0.002Zm-43.635,-76.024l13.66,28.296c-0.123,0.136 -0.255,0.284 -0.394,0.443c-0.824,0.938 -1.917,2.26 -2.982,3.785c-1.059,1.518 -2.128,3.292 -2.863,5.13c-0.725,1.813 -1.205,3.885 -0.837,5.908" style="fill:#fffffe;"/><path d="M54.673,108.559c0,-32.523 26.367,-58.886 58.889,-58.886c32.52,0 58.884,26.363 58.884,58.886c0,32.522 -26.364,58.886 -58.884,58.886c-32.522,0 -58.889,-26.363 -58.889,-58.886Zm58.889,-47.02c-25.969,0 -47.022,21.051 -47.022,47.02c0,25.968 21.053,47.019 47.022,47.019c25.966,0 47.017,-21.05 47.017,-47.019c0,-25.969 -21.051,-47.02 -47.017,-47.02Z" style="fill:#fffffe;"/></svg>