<svg width="101" height="28" viewBox="0 0 101 28" fill="none" xmlns="http://www.w3.org/2000/svg">
<g opacity="0.8">
<path fill-rule="evenodd" clip-rule="evenodd" d="M0.000793457 6.81641H5.95001L9.41435 15.7649L12.9235 6.81641H18.7162L9.9937 28.0002H4.16439L6.552 22.3869L0.000793457 6.81641Z" fill="#8B8B8B"/>
<path fill-rule="evenodd" clip-rule="evenodd" d="M25.8538 11.4217C27.9163 11.4217 28.9808 13.0695 28.9808 14.5562C28.9808 16.1572 27.8404 17.7285 25.8538 17.7285C24.2074 17.7285 22.7195 16.3699 22.7195 14.6243C22.7195 12.8542 23.9163 11.4217 25.8538 11.4217ZM24.7498 6.46094C20.2797 6.46094 17.4539 10.5086 17.4539 14.5392C17.4539 19.075 20.5521 22.6711 24.6651 22.6711C27.7331 22.6711 28.8898 20.784 28.8898 20.784V22.2541H34.0788V6.81734H28.8898V8.2207C28.8898 8.2207 27.5992 6.46094 24.7498 6.46094Z" fill="#8B8B8B"/>
<path fill-rule="evenodd" clip-rule="evenodd" d="M35.8679 22.253V0H41.2953V8.27319C41.2953 8.27319 42.5843 6.462 45.2842 6.462C48.5867 6.462 50.5218 8.94631 50.5218 12.4964V22.253H45.134V13.8329C45.134 12.6315 44.5672 11.4709 43.2833 11.4709C41.9764 11.4709 41.2953 12.6491 41.2953 13.8329V22.253H35.8679Z" fill="#8B8B8B"/>
<path fill-rule="evenodd" clip-rule="evenodd" d="M59.8229 11.4648C61.6312 11.4648 62.8822 12.9854 62.8822 14.6068C62.8822 15.99 61.7163 17.6958 59.8229 17.6958C58.0879 17.6958 56.7859 16.2906 56.7859 14.5918C56.7859 12.9553 57.8684 11.4648 59.8229 11.4648ZM59.7734 6.46094C54.6542 6.46094 51.6062 10.3909 51.6062 14.6016C51.6062 19.3934 55.2967 22.6693 59.7928 22.6693C64.1504 22.6693 67.9636 19.5421 67.9636 14.6819C67.9636 9.36418 63.9711 6.46094 59.7734 6.46094Z" fill="#8B8B8B"/>
<path fill-rule="evenodd" clip-rule="evenodd" d="M77.0534 11.4648C78.8615 11.4648 80.1127 12.9854 80.1127 14.6068C80.1127 15.99 78.9468 17.6958 77.0534 17.6958C75.3182 17.6958 74.0164 16.2906 74.0164 14.5918C74.0164 12.9553 75.0987 11.4648 77.0534 11.4648ZM77.0037 6.46094C71.8847 6.46094 68.8367 10.3909 68.8367 14.6016C68.8367 19.3934 72.5272 22.6693 77.0233 22.6693C81.3808 22.6693 85.194 19.5421 85.194 14.6819C85.194 9.36418 81.2014 6.46094 77.0037 6.46094Z" fill="#8B8B8B"/>
<path fill-rule="evenodd" clip-rule="evenodd" d="M89.4799 15.3027C91.4701 15.3027 93.0837 16.9319 93.0837 18.9416C93.0837 20.9513 91.4701 22.5802 89.4799 22.5802C87.4893 22.5802 85.8757 20.9513 85.8757 18.9416C85.8757 16.9319 87.4893 15.3027 89.4799 15.3027Z" fill="#8B8B8B"/>
<path fill-rule="evenodd" clip-rule="evenodd" d="M94.27 13.9666H87.782L93.5403 0H100.004L94.27 13.9666Z" fill="#8B8B8B"/>
</g>
</svg>
